<svg width="20" height="19" viewBox="0 0 20 19" fill="none" xmlns="http://www.w3.org/2000/svg">
<path d="M18.9474 15.7895V16.8421C18.9474 18 18 18.9474 16.8421 18.9474H2.10526C0.936842 18.9474 0 18 0 16.8421V2.10526C0 0.947368 0.936842 0 2.10526 0H16.8421C18 0 18.9474 0.947368 18.9474 2.10526V3.15789H9.47368C8.30526 3.15789 7.36842 4.10526 7.36842 5.26316V13.6842C7.36842 14.8421 8.30526 15.7895 9.47368 15.7895H18.9474ZM9.47368 13.6842H20V5.26316H9.47368V13.6842ZM13.6842 11.0526C12.8105 11.0526 12.1053 10.3474 12.1053 9.47368C12.1053 8.6 12.8105 7.89474 13.6842 7.89474C14.5579 7.89474 15.2632 8.6 15.2632 9.47368C15.2632 10.3474 14.5579 11.0526 13.6842 11.0526Z" fill="#FF9900"/>
</svg>
