<svg width="23" height="20" viewBox="0 0 23 20" fill="none" xmlns="http://www.w3.org/2000/svg">
<path fill-rule="evenodd" clip-rule="evenodd" d="M20 0H2.22222C1 0 0 1 0 2.22222V17.7778C0 19 1 20 2.22222 20H20C21.2222 20 22.2222 19 22.2222 17.7778V2.22222C22.2222 1 21.2222 0 20 0ZM20 17.7778H2.22222V2.22222H20V17.7778Z" fill="black"/>
<path fill-rule="evenodd" clip-rule="evenodd" d="M19.3444 8.24443L17.7666 6.66666L14.2444 10.1889L12.6778 8.6111L11.1111 10.1778L14.2444 13.3333L19.3444 8.24443Z" fill="black"/>
<path d="M8.88887 4.44443H3.33331V6.66665H8.88887V4.44443Z" fill="black"/>
<path d="M8.88887 8.88885H3.33331V11.1111H8.88887V8.88885Z" fill="black"/>
<path d="M8.88887 13.3333H3.33331V15.5556H8.88887V13.3333Z" fill="black"/>
</svg>
