<svg width="38" height="38" viewBox="0 0 38 38" fill="none" xmlns="http://www.w3.org/2000/svg">
<path d="M33.6833 22.546C35.6462 14.219 30.4953 5.87551 22.1784 3.91018C13.8615 1.94484 5.52799 7.10193 3.56502 15.4289C1.60205 23.7558 6.75295 32.0993 15.0699 34.0647C23.3868 36.03 31.7203 30.8729 33.6833 22.546Z" stroke="black" stroke-width="1.58259" stroke-linecap="round" stroke-linejoin="round"/>
<path d="M11.0735 16.3677H11.0735V16.3662C11.0735 16.2517 11.1075 16.1398 11.1709 16.0448C11.2344 15.9497 11.3245 15.8758 11.4297 15.8322C11.5349 15.7887 11.6506 15.7773 11.7622 15.7996C11.8738 15.8219 11.9764 15.8769 12.057 15.9578L12.6174 15.3991L12.057 15.9578C12.1376 16.0386 12.1925 16.1417 12.2147 16.254C12.2368 16.3663 12.2252 16.4827 12.1813 16.5883C12.1374 16.694 12.0633 16.7841 11.9684 16.8473L12.4073 17.5057L11.9684 16.8473C11.8736 16.9105 11.7622 16.9441 11.6485 16.9439V16.9439H11.6469C11.5717 16.9439 11.4971 16.929 11.4276 16.9001C11.358 16.8712 11.2947 16.8289 11.2414 16.7754C11.1881 16.7219 11.1458 16.6584 11.117 16.5884C11.0882 16.5184 11.0734 16.4434 11.0735 16.3677Z" fill="black" stroke="black" stroke-width="1.58259"/>
<path d="M25.0186 16.3662C25.0186 16.2517 25.0525 16.1399 25.1159 16.0449C25.1793 15.9499 25.2693 15.8759 25.3745 15.8323C25.4797 15.7887 25.5953 15.7773 25.7068 15.7996C25.8184 15.8218 25.921 15.8766 26.0016 15.9574C26.0823 16.0381 26.1373 16.1411 26.1596 16.2533L26.9295 16.1003L26.1596 16.2533C26.1819 16.3655 26.1704 16.4819 26.1267 16.5876C26.083 16.6932 26.009 16.7834 25.9143 16.8468C25.8196 16.9101 25.7083 16.9439 25.5946 16.9439C25.4422 16.9439 25.2958 16.8832 25.1876 16.775C25.0795 16.6667 25.0186 16.5197 25.0186 16.3662Z" fill="black" stroke="black" stroke-width="1.58259"/>
<path d="M11.1282 26.3106C11.7614 24.8473 12.8082 23.6013 14.1398 22.726C15.4713 21.8507 17.0294 21.3844 18.6222 21.3844C20.2151 21.3844 21.7732 21.8507 23.1047 22.726C24.4362 23.6013 25.483 24.8473 26.1163 26.3106" stroke="black" stroke-width="1.58259" stroke-linecap="round" stroke-linejoin="round"/>
<path d="M10.4932 11.6737L14.0709 13.8446" stroke="black" stroke-width="1.58259" stroke-linecap="round" stroke-linejoin="round"/>
<path d="M26.754 11.6737L23.1736 13.8446" stroke="black" stroke-width="1.58259" stroke-linecap="round" stroke-linejoin="round"/>
</svg>
