<svg width="45" height="44" viewBox="0 0 45 44" fill="none" xmlns="http://www.w3.org/2000/svg">
<path d="M11.8131 33.049C5.77053 26.9992 5.77053 17.1905 11.8131 11.1407C17.8556 5.0909 27.6525 5.0909 33.695 11.1407C39.7375 17.1905 39.7375 26.9992 33.695 33.049C27.6525 39.0988 17.8556 39.0988 11.8131 33.049Z" stroke="black" stroke-width="1.58259" stroke-linecap="round" stroke-linejoin="round"/>
<path d="M30.3015 18.4905H30.3015V18.489C30.3015 18.3745 30.2675 18.2626 30.2041 18.1676C30.1406 18.0725 30.0505 17.9986 29.9453 17.955C29.8401 17.9115 29.7244 17.9001 29.6128 17.9224C29.5012 17.9447 29.3986 17.9997 29.318 18.0806C29.2374 18.1614 29.1825 18.2645 29.1603 18.3768C29.1382 18.4891 29.1498 18.6055 29.1937 18.7111C29.2376 18.8168 29.3117 18.9069 29.4066 18.9701C29.5014 19.0333 29.6128 19.0669 29.7265 19.0667V19.0667H29.7281C29.8033 19.0667 29.8779 19.0518 29.9474 19.0229C30.017 18.994 30.0803 18.9517 30.1336 18.8982C30.1869 18.8447 30.2292 18.7812 30.258 18.7112C30.2868 18.6413 30.3016 18.5663 30.3015 18.4905Z" stroke="black" stroke-width="1.58259"/>
<path d="M16.354 18.4905H16.354V18.489C16.354 18.3745 16.32 18.2626 16.2566 18.1676C16.1931 18.0725 16.103 17.9986 15.9978 17.955C15.8926 17.9115 15.7769 17.9001 15.6653 17.9224C15.5537 17.9447 15.4511 17.9997 15.3705 18.0806C15.2899 18.1614 15.235 18.2645 15.2128 18.3768C15.1907 18.4891 15.2023 18.6055 15.2462 18.7111C15.2901 18.8168 15.3642 18.9069 15.4591 18.9701C15.5539 19.0333 15.6653 19.0669 15.779 19.0667V19.0667H15.7806C15.8558 19.0667 15.9304 19.0518 15.9999 19.0229C16.0695 18.994 16.1328 18.9517 16.1861 18.8982C16.2394 18.8447 16.2817 18.7812 16.3105 18.7112C16.3393 18.6413 16.3541 18.5663 16.354 18.4905Z" stroke="black" stroke-width="1.58259"/>
<path d="M30.2468 28.4333C29.6136 26.97 28.5668 25.724 27.2353 24.8487C25.9037 23.9734 24.3456 23.5071 22.7528 23.5071C21.1599 23.5071 19.6018 23.9734 18.2703 24.8487C16.9388 25.724 15.892 26.97 15.2587 28.4333" stroke="black" stroke-width="1.58259" stroke-linecap="round" stroke-linejoin="round"/>
</svg>
