<svg width="34" height="33" viewBox="0 0 34 33" fill="none" xmlns="http://www.w3.org/2000/svg">
<path d="M8.73389 12.9644C8.73389 12.6936 8.81415 12.4288 8.96451 12.2036C9.11487 11.9784 9.32858 11.803 9.57858 11.6994C9.82858 11.5959 10.1036 11.5689 10.369 11.622C10.6343 11.675 10.8779 11.8056 11.069 11.9974C11.2601 12.1891 11.3902 12.4333 11.4426 12.699C11.4951 12.9647 11.4676 13.2401 11.3637 13.4902C11.2598 13.7403 11.0842 13.9539 10.859 14.104C10.6338 14.2541 10.3691 14.334 10.0986 14.3334C9.91916 14.3334 9.74148 14.298 9.57574 14.2292C9.40999 14.1604 9.25944 14.0595 9.13268 13.9323C9.00592 13.8052 8.90544 13.6542 8.83701 13.4881C8.76858 13.3221 8.73354 13.1441 8.73389 12.9644Z" fill="black"/>
<path d="M22.6812 12.9644C22.6812 12.6936 22.7614 12.4288 22.9118 12.2036C23.0621 11.9784 23.2758 11.803 23.5258 11.6994C23.7759 11.5959 24.0509 11.5689 24.3162 11.622C24.5815 11.675 24.8252 11.8056 25.0163 11.9974C25.2074 12.1891 25.3374 12.4333 25.3899 12.699C25.4424 12.9647 25.4149 13.2401 25.311 13.4902C25.2071 13.7403 25.0314 13.9539 24.8062 14.104C24.581 14.2541 24.3164 14.334 24.0459 14.3334C23.8664 14.3334 23.6887 14.298 23.523 14.2292C23.3573 14.1604 23.2067 14.0595 23.0799 13.9323C22.9532 13.8052 22.8527 13.6542 22.7843 13.4881C22.7158 13.3221 22.6808 13.1441 22.6812 12.9644Z" fill="black"/>
<path d="M28.0148 27.5255C34.0574 21.4757 34.0574 11.6671 28.0148 5.61727C21.9723 -0.43254 12.1754 -0.432544 6.13288 5.61726C0.0903434 11.6671 0.0903354 21.4757 6.13287 27.5256C12.1754 33.5754 21.9723 33.5754 28.0148 27.5255Z" stroke="black" stroke-width="1.58259" stroke-linecap="round" stroke-linejoin="round"/>
<path d="M25.3922 19.1631C24.8398 20.9395 23.7346 22.4925 22.238 23.5953C20.7414 24.6982 18.9318 25.293 17.0736 25.293C15.2153 25.293 13.4057 24.6982 11.9091 23.5953C10.4125 22.4925 9.30729 20.9395 8.75488 19.1631H25.3922Z" stroke="black" stroke-width="1.58259" stroke-linecap="round" stroke-linejoin="round"/>
</svg>
