<svg width="32" height="32" viewBox="0 0 32 32" fill="none" xmlns="http://www.w3.org/2000/svg">
<path d="M8.43213 12.38C8.43163 12.1218 8.50773 11.8693 8.65079 11.6544C8.79386 11.4396 8.99746 11.2719 9.23582 11.1728C9.47418 11.0737 9.73658 11.0475 9.98984 11.0975C10.2431 11.1476 10.4758 11.2716 10.6585 11.454C10.8413 11.6364 10.9658 11.8689 11.0163 12.122C11.0669 12.3752 11.0412 12.6376 10.9425 12.8762C10.8438 13.1147 10.6766 13.3187 10.462 13.4621C10.2474 13.6056 9.99501 13.6822 9.73685 13.6822C9.39125 13.6822 9.05977 13.5451 8.81516 13.3009C8.57055 13.0568 8.4328 12.7256 8.43213 12.38Z" fill="black"/>
<path d="M21.7559 12.38C21.7554 12.1218 21.8314 11.8693 21.9745 11.6544C22.1176 11.4396 22.3212 11.2719 22.5595 11.1728C22.7979 11.0737 23.0603 11.0475 23.3136 11.0975C23.5668 11.1476 23.7995 11.2716 23.9823 11.454C24.165 11.6364 24.2895 11.8689 24.34 12.122C24.3906 12.3752 24.3649 12.6376 24.2662 12.8762C24.1675 13.1147 24.0003 13.3187 23.7857 13.4621C23.5711 13.6056 23.3187 13.6822 23.0606 13.6822C22.715 13.6822 22.3835 13.5451 22.1389 13.3009C21.8943 13.0568 21.7565 12.7256 21.7559 12.38Z" fill="black"/>
<path d="M16.3938 30.5808C24.5479 30.5808 31.158 23.9706 31.158 15.8166C31.158 7.66252 24.5479 1.05237 16.3938 1.05237C8.23979 1.05237 1.62964 7.66252 1.62964 15.8166C1.62964 23.9706 8.23979 30.5808 16.3938 30.5808Z" stroke="black" stroke-width="1.58259" stroke-linecap="round" stroke-linejoin="round"/>
<path d="M8.77173 19.8463H24.0161" stroke="black" stroke-width="1.58259" stroke-linecap="round" stroke-linejoin="round"/>
</svg>
