<svg width="38" height="50" viewBox="0 0 38 50" fill="none" xmlns="http://www.w3.org/2000/svg">
<g filter="url(#filter0_d_1379_699)">
<path d="M15 3C6.70714 3 0 9.80541 0 18.2198C0 29.6346 15 46.485 15 46.485C15 46.485 30 29.6346 30 18.2198C30 9.80541 23.2929 3 15 3ZM15 23.6554C12.0429 23.6554 9.64286 21.2202 9.64286 18.2198C9.64286 15.2193 12.0429 12.7841 15 12.7841C17.9571 12.7841 20.3571 15.2193 20.3571 18.2198C20.3571 21.2202 17.9571 23.6554 15 23.6554Z" fill="#3661B3"/>
</g>
<circle cx="15" cy="18" r="6" fill="white"/>
<defs>
<filter id="filter0_d_1379_699" x="0" y="0" width="38" height="49.485" filterUnits="userSpaceOnUse" color-interpolation-filters="sRGB">
<feFlood flood-opacity="0" result="BackgroundImageFix"/>
<feColorMatrix in="SourceAlpha" type="matrix" values="0 0 0 0 0 0 0 0 0 0 0 0 0 0 0 0 0 0 127 0" result="hardAlpha"/>
<feOffset dx="5"/>
<feGaussianBlur stdDeviation="1.5"/>
<feComposite in2="hardAlpha" operator="out"/>
<feColorMatrix type="matrix" values="0 0 0 0 0 0 0 0 0 0 0 0 0 0 0 0 0 0 0.25 0"/>
<feBlend mode="normal" in2="BackgroundImageFix" result="effect1_dropShadow_1379_699"/>
<feBlend mode="normal" in="SourceGraphic" in2="effect1_dropShadow_1379_699" result="shape"/>
</filter>
</defs>
</svg>
