<svg width="51" height="18" viewBox="0 0 51 18" fill="none" xmlns="http://www.w3.org/2000/svg">
<path d="M14.1636 3.61523V9.42969H12.5386V3.61523H14.1636ZM10.6597 4.03418C10.647 7.20801 8.88232 8.93457 5.22607 9.6709L4.65479 8.36328C7.50488 7.83643 8.69189 6.73193 8.86963 5.3418H5.27686V4.03418H10.6597ZM14.1636 9.88672V13.0098H8.06982V13.7969H14.481V15.0537H6.43213V11.8418H12.5259V11.1436H6.40674V9.88672H14.1636ZM22.314 4.73242V6.01465H19.978C20.0034 7.15088 20.8413 8.31885 22.6821 8.78223L21.9712 10.0264C20.6382 9.68994 19.7114 8.96631 19.1909 8.0459C18.6768 9.06152 17.75 9.86768 16.3979 10.2422L15.6362 8.95996C17.4771 8.48389 18.3403 7.26514 18.3657 6.01465H16.0425V4.73242H18.3657V3.56445H20.0034V4.73242H22.314ZM24.8911 3.61523V6.20508H26.4526V7.53809H24.8911V10.2041H23.2661V3.61523H24.8911ZM25.0308 10.6992V11.9688H22.0981C22.3901 12.8193 23.5264 13.6445 25.5386 13.9111L24.9673 15.1426C23.1074 14.895 21.7998 14.1523 21.1333 13.1621C20.4731 14.146 19.1719 14.8696 17.3374 15.1172L16.7534 13.8857C18.7847 13.6382 19.9082 12.8384 20.2065 11.9688H17.2485V10.6992H25.0308ZM36.6724 3.61523V15.168H35.0347V3.61523H36.6724ZM33.2065 4.82129C33.2065 8.3252 31.9751 11.2324 27.8491 13.1875L26.9985 11.8926C29.9819 10.4834 31.2959 8.65527 31.5562 6.09082H27.6206V4.82129H33.2065Z" fill="#3660B2"/>
<path d="M49.3665 8.10943C49.4439 8.10924 49.5182 8.07869 49.5733 8.02434L50.86 6.73767C50.8875 6.71071 50.9093 6.67852 50.9242 6.64299C50.9391 6.60746 50.9467 6.56931 50.9466 6.5308C50.9465 6.49209 50.9389 6.45376 50.924 6.41801C50.9092 6.38226 50.8874 6.34979 50.86 6.32247L49.5733 5.03726C49.5182 4.98291 49.4439 4.95236 49.3665 4.95217H47.4093V4.29343C47.4094 4.25486 47.4019 4.21664 47.3873 4.18098C47.3726 4.14532 47.3509 4.11291 47.3237 4.08564C47.2964 4.05837 47.264 4.03676 47.2283 4.02206C47.1927 4.00736 47.1545 3.99987 47.1159 4H45.6825C45.6439 3.99987 45.6057 4.00736 45.57 4.02206C45.5344 4.03676 45.502 4.05837 45.4747 4.08564C45.4474 4.11291 45.4258 4.14532 45.4111 4.18098C45.3964 4.21664 45.3889 4.25486 45.3891 4.29343V4.95217H43.5287C43.4902 4.95203 43.452 4.95953 43.4163 4.97423C43.3806 4.98892 43.3482 5.01054 43.321 5.03781C43.2937 5.06508 43.2721 5.09748 43.2574 5.13315C43.2427 5.16881 43.2352 5.20702 43.2353 5.24559V7.81601C43.2352 7.85458 43.2427 7.89279 43.2574 7.92845C43.2721 7.96412 43.2937 7.99652 43.321 8.02379C43.3482 8.05106 43.3806 8.07267 43.4163 8.08737C43.452 8.10207 43.4902 8.10957 43.5287 8.10943H45.3891V8.71242H43.5801C43.5027 8.71261 43.4284 8.74317 43.3732 8.79752L42.0866 10.0827C42.0591 10.11 42.0374 10.1425 42.0225 10.1783C42.0077 10.214 42 10.2523 42 10.2911C41.9999 10.3296 42.0075 10.3677 42.0224 10.4032C42.0372 10.4388 42.0591 10.471 42.0866 10.4979L43.3732 11.7846C43.4284 11.8389 43.5027 11.8695 43.5801 11.8697H45.3891V13.4131C45.3113 13.4145 45.2372 13.4467 45.1831 13.5027C45.129 13.5587 45.0994 13.6338 45.1008 13.7117C45.1021 13.7895 45.1344 13.8636 45.1904 13.9176C45.2463 13.9717 45.3215 14.0013 45.3993 14H47.402C47.4798 14.0009 47.5548 13.9709 47.6105 13.9166C47.6662 13.8623 47.6981 13.788 47.6991 13.7102C47.7 13.6324 47.6701 13.5574 47.6157 13.5016C47.5614 13.4459 47.4871 13.4141 47.4093 13.4131V11.8697H49.4178C49.4564 11.8698 49.4946 11.8623 49.5303 11.8476C49.5659 11.8329 49.5983 11.8113 49.6256 11.784C49.6529 11.7568 49.6745 11.7244 49.6892 11.6887C49.7039 11.653 49.7114 11.6148 49.7112 11.5763V9.00585C49.7114 8.96727 49.7039 8.92906 49.6892 8.8934C49.6745 8.85774 49.6529 8.82534 49.6256 8.79806C49.5983 8.77079 49.5659 8.74918 49.5303 8.73448C49.4946 8.71978 49.4564 8.71228 49.4178 8.71242H47.4093V8.10943H49.3665ZM45.9759 4.58685H46.8225V4.95217H45.9759V4.58685ZM46.8225 13.4131H45.9759V11.8697H46.8225V13.4131ZM49.1244 9.29927V11.2828H43.7019L42.7086 10.2911L43.7019 9.29927H49.1244ZM45.9759 8.71242V8.10943H46.8225V8.71242H45.9759ZM43.8222 7.52258V5.53902H49.2447L50.2379 6.5308L49.2447 7.52258H43.8222Z" fill="#3660B2"/>
<path d="M47.5629 6.82406H45.3837C45.3058 6.82406 45.2312 6.79315 45.1762 6.73812C45.1212 6.68309 45.0902 6.60846 45.0902 6.53064C45.0902 6.45282 45.1212 6.37818 45.1762 6.32315C45.2312 6.26813 45.3058 6.23721 45.3837 6.23721H47.5629C47.6408 6.23721 47.7154 6.26813 47.7704 6.32315C47.8255 6.37818 47.8564 6.45282 47.8564 6.53064C47.8564 6.60846 47.8255 6.68309 47.7704 6.73812C47.7154 6.79315 47.6408 6.82406 47.5629 6.82406Z" fill="#3660B2"/>
<path d="M47.5477 10.5845H45.3989C45.3211 10.5845 45.2464 10.5536 45.1914 10.4985C45.1364 10.4435 45.1055 10.3689 45.1055 10.2911C45.1055 10.2132 45.1364 10.1386 45.1914 10.0836C45.2464 10.0285 45.3211 9.99763 45.3989 9.99763H47.5477C47.6255 9.99763 47.7001 10.0285 47.7551 10.0836C47.8102 10.1386 47.8411 10.2132 47.8411 10.2911C47.8411 10.3689 47.8102 10.4435 47.7551 10.4985C47.7001 10.5536 47.6255 10.5845 47.5477 10.5845Z" fill="#3660B2"/>
</svg>
