<svg width="37" height="39" viewBox="0 0 37 39" fill="none" xmlns="http://www.w3.org/2000/svg">
<path d="M9.10547 30.041V38.8691H8.07031V34.3672H7.07422V38.4199H6.07812V30.207H7.07422V33.498H8.07031V30.041H9.10547ZM5.08203 31.0859V31.9648H2.875V35.8906C3.83691 35.8809 4.62793 35.832 5.52148 35.666L5.59961 36.5547C4.53516 36.7695 3.60742 36.7988 2.37695 36.8086H1.78125V31.0859H5.08203ZM18.1973 34.0938V34.9727H14.7012V35.7051C16.2832 35.8125 17.2109 36.3594 17.2207 37.2773C17.2109 38.293 16.0684 38.8594 14.1641 38.8594C12.2402 38.8594 11.0879 38.293 11.0879 37.2773C11.0879 36.3594 12.0254 35.8076 13.627 35.7051V34.9727H10.1504V34.0938H18.1973ZM14.1641 36.5254C12.875 36.5352 12.1816 36.7891 12.1914 37.2773C12.1816 37.7656 12.875 38.0293 14.1641 38.0293C15.4238 38.0293 16.127 37.7656 16.1367 37.2773C16.127 36.7891 15.4238 36.5352 14.1641 36.5254ZM17.4746 30.4316V31.3008H14.9355C15.1064 32.0283 16.1611 32.6826 17.8164 32.834L17.4355 33.6934C15.834 33.5322 14.6426 32.8926 14.1641 31.9941C13.6855 32.8877 12.5137 33.5322 10.9121 33.6934L10.541 32.834C12.1621 32.6826 13.2168 32.0186 13.4023 31.3008H10.8828V30.4316H17.4746ZM26.0293 30.8516V31.75C26.0293 32.8438 26.0293 34.0352 25.707 35.7637L24.6426 35.6562C24.9453 34.0254 24.9453 32.8145 24.9453 31.75V31.7207H19.6035V30.8516H26.0293ZM26.8398 36.8379V37.7266H18.793V36.8379H20.5996V34.0254H21.6836V36.8379H22.8066V34.0254H23.8711V36.8379H26.8398ZM35.4824 34.6309V35.4902H27.416V34.6309H30.9023V33.9766H28.4512V30.2754H34.5156V31.1152H29.5352V31.7207H34.3008V32.5215H29.5352V33.1465H34.584V33.9766H31.9863V34.6309H35.4824ZM31.4492 35.9785C33.3926 35.9785 34.4961 36.4961 34.5059 37.4141C34.4961 38.3613 33.3926 38.8594 31.4492 38.8594C29.4766 38.8594 28.373 38.3613 28.373 37.4141C28.373 36.4961 29.4766 35.9785 31.4492 35.9785ZM31.4492 36.7891C30.1211 36.7891 29.457 36.9941 29.457 37.4141C29.457 37.8438 30.1211 38.0488 31.4492 38.0488C32.7578 38.0488 33.4121 37.8438 33.4219 37.4141C33.4121 36.9941 32.7578 36.7891 31.4492 36.7891Z" fill="#FFCB2A"/>
<circle cx="18.5" cy="12.5" r="12.5" fill="#FFCB2A"/>
<path d="M11 17.2632C11 18.0968 11.3695 18.8453 11.9474 19.3663V21.0526C11.9474 21.5737 12.3737 22 12.8947 22H13.8421C14.3632 22 14.7895 21.5737 14.7895 21.0526V20.1053H22.3684V21.0526C22.3684 21.5737 22.7947 22 23.3158 22H24.2632C24.7842 22 25.2105 21.5737 25.2105 21.0526V19.3663C25.7884 18.8453 26.1579 18.0968 26.1579 17.2632V7.78947C26.1579 4.47368 22.7663 4 18.5789 4C14.3916 4 11 4.47368 11 7.78947V17.2632ZM14.3158 18.2105C13.5295 18.2105 12.8947 17.5758 12.8947 16.7895C12.8947 16.0032 13.5295 15.3684 14.3158 15.3684C15.1021 15.3684 15.7368 16.0032 15.7368 16.7895C15.7368 17.5758 15.1021 18.2105 14.3158 18.2105ZM22.8421 18.2105C22.0558 18.2105 21.4211 17.5758 21.4211 16.7895C21.4211 16.0032 22.0558 15.3684 22.8421 15.3684C23.6284 15.3684 24.2632 16.0032 24.2632 16.7895C24.2632 17.5758 23.6284 18.2105 22.8421 18.2105ZM24.2632 12.5263H12.8947V7.78947H24.2632V12.5263Z" fill="white"/>
</svg>
