<svg width="26" height="39" viewBox="0 0 26 39" fill="none" xmlns="http://www.w3.org/2000/svg">
<path d="M3.49316 32.5508C3.49316 33.918 4.30371 35.4707 5.7002 36.1152L5.09473 36.9746C4.09863 36.5059 3.36133 35.5586 2.96582 34.4551C2.56543 35.666 1.79395 36.7012 0.77832 37.1895L0.143555 36.3398C1.5498 35.6758 2.39941 34.0156 2.40918 32.5508V31.8086H0.485352V30.9102H5.33887V31.8086H3.49316V32.5508ZM7.24316 30.041V33.4785H8.60059V34.3867H7.24316V38.8691H6.15918V30.041H7.24316ZM16.3643 30.0508V36.4961H15.2803V33.2637H13.7178V32.3848H15.2803V30.0508H16.3643ZM16.5889 37.8145V38.6934H10.5732V35.9297H11.6572V37.8145H16.5889ZM12.2139 31.8086C12.2139 32.873 12.9268 33.9668 14.2939 34.416L13.7471 35.2852C12.7607 34.9482 12.0625 34.2793 11.6768 33.4395C11.2861 34.3721 10.5488 35.1094 9.50879 35.4707L8.95215 34.5918C10.3584 34.1328 11.1104 32.9707 11.1104 31.7988V31.5645H9.27441V30.6855H14.04V31.5645H12.2139V31.8086ZM25.0068 30.041V38.8691H23.9229V34.377H22.0576V33.4883H23.9229V30.041H25.0068ZM22.0967 30.9785C22.0869 33.5859 21.1592 35.7734 18.1221 37.2773L17.5557 36.4277C19.8408 35.3096 20.8223 33.8154 21.0029 31.8379H17.9658V30.9785H22.0967Z" fill="#FFCB2A"/>
<circle cx="13.5" cy="12.5" r="12.5" fill="#FFCB2A"/>
<path d="M16.3415 7.92683C17.1463 7.92683 17.8049 7.26829 17.8049 6.46341C17.8049 5.65854 17.1463 5 16.3415 5C15.5366 5 14.878 5.65854 14.878 6.46341C14.878 7.26829 15.5366 7.92683 16.3415 7.92683ZM8.65854 12.6829C6.60976 12.6829 5 14.2927 5 16.3415C5 18.3902 6.60976 20 8.65854 20C10.7073 20 12.3171 18.3902 12.3171 16.3415C12.3171 14.2927 10.7073 12.6829 8.65854 12.6829ZM8.65854 18.9024C7.26829 18.9024 6.09756 17.7317 6.09756 16.3415C6.09756 14.9512 7.26829 13.7805 8.65854 13.7805C10.0488 13.7805 11.2195 14.9512 11.2195 16.3415C11.2195 17.7317 10.0488 18.9024 8.65854 18.9024ZM12.9024 11.5854L14.6585 9.82927L15.2439 10.4146C16.1951 11.3659 17.439 11.9512 18.9756 11.9512V10.4878C17.878 10.4878 17 10.0488 16.3415 9.39024L14.9512 8C14.5854 7.70732 14.2195 7.56098 13.7805 7.56098C13.3415 7.56098 12.9756 7.70732 12.7561 8L10.7073 10.0488C10.4146 10.3415 10.2683 10.7073 10.2683 11.0732C10.2683 11.5122 10.4146 11.878 10.7073 12.0976L13.0488 14.1463V17.8049H14.5122V13.2683L12.9024 11.5854ZM18.9024 12.6829C16.8537 12.6829 15.2439 14.2927 15.2439 16.3415C15.2439 18.3902 16.8537 20 18.9024 20C20.9512 20 22.561 18.3902 22.561 16.3415C22.561 14.2927 20.9512 12.6829 18.9024 12.6829ZM18.9024 18.9024C17.5122 18.9024 16.3415 17.7317 16.3415 16.3415C16.3415 14.9512 17.5122 13.7805 18.9024 13.7805C20.2927 13.7805 21.4634 14.9512 21.4634 16.3415C21.4634 17.7317 20.2927 18.9024 18.9024 18.9024Z" fill="white"/>
</svg>
