<svg width="28" height="12" viewBox="0 0 28 12" fill="none" xmlns="http://www.w3.org/2000/svg">
<path d="M14.6839 0.95V1.45C14.6839 1.58 14.7739 1.67 14.9539 1.67H16.0039C16.2139 1.67 16.3339 1.79 16.3339 2V2.69C16.3339 2.9 16.2139 3.02 16.0039 3.02H14.6839V3.5C14.6839 4.29 15.1839 4.8 16.0239 4.8C16.2339 4.8 16.3339 4.9 16.3339 5.09V5.84C16.3339 6.12 16.1539 6.15 15.9339 6.15C15.0239 6.15 14.2339 5.6 13.9639 4.84C13.7039 5.6 12.9039 6.15 11.9939 6.15C11.7739 6.15 11.5639 6.11 11.5639 5.84V5.09C11.5639 4.9 11.6739 4.8 11.8939 4.8C12.7339 4.8 13.2339 4.29 13.2339 3.5V3.02H11.8939C11.6839 3.02 11.5639 2.9 11.5639 2.69V2C11.5639 1.79 11.6839 1.67 11.8939 1.67H13.3839C13.2839 1.61 13.2339 1.52 13.2339 1.38V0.95C13.2339 0.74 13.3339 0.639999 13.5439 0.639999H14.3739C14.5839 0.639999 14.6839 0.74 14.6839 0.95ZM18.6939 9.37C18.6939 9.58 18.5739 9.7 18.3639 9.7H17.5739C17.3639 9.7 17.2439 9.58 17.2439 9.37V1.07C17.2439 0.86 17.3639 0.74 17.5739 0.74H18.3639C18.5739 0.74 18.6939 0.86 18.6939 1.07V9.37ZM11.1839 8.63V7.89C11.1839 7.68 11.3039 7.56 11.5139 7.59C12.0439 7.66 12.6839 7.72 13.4239 7.74C13.2539 7.66 13.1639 7.47 13.1639 7.22V6.71C13.1639 6.5 13.2839 6.38 13.4939 6.38H14.2939C14.5039 6.38 14.6139 6.5 14.6139 6.71V7.3C14.6139 7.57 14.7539 7.72 15.0439 7.72C15.4239 7.72 15.9539 7.68 16.4439 7.59C16.6539 7.55 16.7839 7.68 16.7839 7.89V8.63C16.7839 8.81 16.6839 8.9 16.4539 8.95C16.0339 9.04 14.9139 9.1 13.9539 9.1C12.8539 9.1 12.1839 9.05 11.5139 8.95C11.2839 8.92 11.1839 8.82 11.1839 8.63ZM24.25 0.97C24.46 0.97 24.58 1.09 24.58 1.3V1.99C24.58 2.2 24.46 2.32 24.25 2.32H22.98V2.68C22.98 3.64 23.54 4.19 24.32 4.19C24.53 4.19 24.63 4.29 24.63 4.48V5.23C24.63 5.43 24.53 5.54 24.32 5.54C23.37 5.54 22.54 5.09 22.27 4.25C21.99 5.09 21.16 5.54 20.19 5.54C19.97 5.54 19.86 5.42 19.86 5.23V4.48C19.86 4.29 19.97 4.19 20.19 4.19C20.97 4.19 21.53 3.64 21.53 2.68V2.32H20.24C20.03 2.32 19.91 2.2 19.91 1.99V1.3C19.91 1.09 20.03 0.97 20.24 0.97H24.25ZM20.98 6.44C21.98 6.33 23.19 6.26 25.16 6.26C26.53 6.26 27.16 6.83 27.16 8.03C27.16 8.65 27.13 9.2 27.1 9.44C27.07 9.65 26.98 9.75 26.77 9.75H25.96C25.75 9.75 25.62 9.63 25.65 9.42C25.69 9.11 25.71 8.67 25.71 8.34C25.71 7.83 25.49 7.61 24.94 7.61C23.35 7.61 22.1 7.71 20.98 7.79C20.78 7.8 20.67 7.68 20.67 7.48V6.75C20.67 6.55 20.78 6.46 20.98 6.44ZM25.74 3.62C25.64 3.79 25.44 3.89 25.17 3.89H24.74C24.54 3.89 24.43 3.78 24.43 3.58V2.85C24.43 2.65 24.54 2.54 24.74 2.54H25.21C25.55 2.54 25.74 2.36 25.74 2.04V1.07C25.74 0.86 25.86 0.74 26.07 0.74H26.86C27.07 0.74 27.19 0.86 27.19 1.07V5.27C27.19 5.48 27.07 5.6 26.86 5.6H26.07C25.86 5.6 25.74 5.48 25.74 5.27V3.62Z" fill="#3760B2"/>
<path fill-rule="evenodd" clip-rule="evenodd" d="M2.97848 2.52569C3.47912 1.82477 4.52085 1.82477 5.02153 2.52569L5.10124 2.63728C5.18933 2.76064 5.33729 2.82669 5.48793 2.80995L5.8432 2.77048C6.64278 2.68164 7.31836 3.35723 7.22953 4.15678L7.19007 4.51206C7.17333 4.66272 7.23936 4.81066 7.36272 4.89877L7.47432 4.97848C8.17523 5.47912 8.17523 6.52085 7.47432 7.02153L7.36272 7.10124C7.23936 7.18933 7.17333 7.33729 7.19007 7.48793L7.22953 7.8432C7.31836 8.64278 6.64278 9.31836 5.8432 9.22953L5.48793 9.19007C5.33729 9.17333 5.18933 9.23936 5.10124 9.36272L5.02153 9.47432C4.52085 10.1752 3.47916 10.1752 2.97848 9.47432L2.89877 9.36272C2.81066 9.23936 2.66272 9.17333 2.51205 9.19007L2.15678 9.22953C1.35723 9.31836 0.68164 8.64278 0.770477 7.8432L0.809954 7.48793C0.826692 7.33729 0.760639 7.18933 0.63728 7.10124L0.525692 7.02153C-0.175231 6.52085 -0.175231 5.47916 0.525692 4.97848L0.63728 4.89877C0.760639 4.81066 0.826692 4.66272 0.809954 4.51205L0.770477 4.15678C0.68164 3.35723 1.35723 2.68164 2.15678 2.77048L2.51206 2.80995C2.66272 2.82669 2.81066 2.76064 2.89877 2.63728L2.97848 2.52569ZM5.55125 4.86721C5.71465 5.03063 5.71465 5.29559 5.55125 5.45899L3.95322 7.05701C3.74797 7.26231 3.41514 7.26231 3.20989 7.05701L2.44876 6.29589C2.28535 6.13249 2.28535 5.86753 2.44876 5.70412C2.61218 5.54071 2.87713 5.54071 3.04054 5.70412L3.58156 6.24514L4.95947 4.86721C5.12288 4.7038 5.38784 4.7038 5.55125 4.86721Z" fill="#3760B2"/>
</svg>
