<svg width="53" height="53" viewBox="0 0 53 53" fill="none" xmlns="http://www.w3.org/2000/svg">
<rect width="52.4" height="52.409" rx="26.2" fill="#FFCB2A"/>
<path d="M29.95 17.3V25.35H18.6455L17.967 26.0285L17.3 26.6955V17.3H29.95ZM31.1 15H16.15C15.5175 15 15 15.5175 15 16.15V32.25L19.6 27.65H31.1C31.7325 27.65 32.25 27.1325 32.25 26.5V16.15C32.25 15.5175 31.7325 15 31.1 15ZM36.85 19.6H34.55V29.95H19.6V32.25C19.6 32.8825 20.1175 33.4 20.75 33.4H33.4L38 38V20.75C38 20.1175 37.4825 19.6 36.85 19.6Z" fill="white"/>
</svg>
