<svg width="25" height="39" viewBox="0 0 25 39" fill="none" xmlns="http://www.w3.org/2000/svg">
<path d="M7.625 35.5781C9.51953 35.5781 10.7109 36.1738 10.7207 37.1992C10.7109 38.2148 9.51953 38.8203 7.625 38.8105C5.75 38.8203 4.54883 38.2148 4.54883 37.1992C4.54883 36.1738 5.75 35.5781 7.625 35.5781ZM7.625 36.2812C6.29688 36.2812 5.4668 36.623 5.47656 37.1992C5.4668 37.7656 6.29688 38.0977 7.625 38.0977C8.96289 38.0977 9.79297 37.7656 9.80273 37.1992C9.79297 36.623 8.96289 36.2812 7.625 36.2812ZM10.6523 30.5098V31.2422C10.6523 31.9453 10.6523 32.668 10.4082 33.5664L9.5 33.4688C9.73438 32.5752 9.73438 31.9307 9.73438 31.252H4.61719V30.5098H10.6523ZM11.6484 34.1035V34.8555H3.68945V34.1035H6.88281V32.4629H7.79102V34.1035H11.6484ZM20.3203 35.0215V35.7832H18.2891V38.8301H17.3516V35.7832H15.2617V38.8301H14.3047V35.7832H12.3125V35.0215H20.3203ZM16.2969 30.4121C18.1426 30.4121 19.4121 31.1641 19.4121 32.3457C19.4121 33.5078 18.1426 34.25 16.2969 34.2402C14.4414 34.25 13.1816 33.5078 13.1816 32.3457C13.1816 31.1641 14.4414 30.4121 16.2969 30.4121ZM16.2969 31.1543C14.998 31.1641 14.1289 31.6133 14.1387 32.3457C14.1289 33.0586 14.998 33.5078 16.2969 33.5078C17.5957 33.5078 18.4648 33.0586 18.4648 32.3457C18.4648 31.6133 17.5957 31.1641 16.2969 31.1543Z" fill="#394FBC"/>
<circle cx="12.5" cy="12.5" r="12.5" fill="#3660B2"/>
<path d="M15.8333 15.1689C15.2844 15.1689 14.7933 15.3856 14.4178 15.725L9.26833 12.7278C9.30444 12.5617 9.33333 12.3956 9.33333 12.2222C9.33333 12.0489 9.30444 11.8828 9.26833 11.7167L14.36 8.74833C14.75 9.10944 15.2628 9.33333 15.8333 9.33333C17.0322 9.33333 18 8.36556 18 7.16667C18 5.96778 17.0322 5 15.8333 5C14.6344 5 13.6667 5.96778 13.6667 7.16667C13.6667 7.34 13.6956 7.50611 13.7317 7.67222L8.64 10.6406C8.25 10.2794 7.73722 10.0556 7.16667 10.0556C5.96778 10.0556 5 11.0233 5 12.2222C5 13.4211 5.96778 14.3889 7.16667 14.3889C7.73722 14.3889 8.25 14.165 8.64 13.8039L13.7822 16.8083C13.7461 16.96 13.7244 17.1189 13.7244 17.2778C13.7244 18.4406 14.6706 19.3867 15.8333 19.3867C16.9961 19.3867 17.9422 18.4406 17.9422 17.2778C17.9422 16.115 16.9961 15.1689 15.8333 15.1689Z" fill="white"/>
</svg>
