<svg width="25" height="38" viewBox="0 0 25 38" fill="none" xmlns="http://www.w3.org/2000/svg">
<path d="M10.8184 34.0547V34.9141H8.20117V36.9355H11.7168V37.8242H3.65039V36.9355H7.12695V34.9141H4.62695V30.6953H10.75V31.5645H5.71094V34.0547H10.8184ZM20.3594 36.916V37.8047H12.293V36.916H15.7695V35.1973H13.1816V30.627H14.2656V32.0723H18.3574V30.627H19.4414V35.1973H16.8438V36.916H20.3594ZM14.2656 34.3184H18.3574V32.9414H14.2656V34.3184Z" fill="#FFCB2A"/>
<circle cx="12.5" cy="12.5" r="12.5" fill="#FFCB2A"/>
<path d="M13.2791 7.34884C14.2 7.34884 14.9535 6.59535 14.9535 5.67442C14.9535 4.75349 14.2 4 13.2791 4C12.3581 4 11.6047 4.75349 11.6047 5.67442C11.6047 6.59535 12.3581 7.34884 13.2791 7.34884ZM10.1814 10.1953L7.83721 22H9.59535L11.1023 15.3023L12.8605 16.9767V22H14.5349V15.7209L12.7767 14.0465L13.2791 11.5349C14.3674 12.7907 16.0419 13.6279 17.8837 13.6279V11.9535C16.293 11.9535 14.9535 11.1163 14.2837 9.94419L13.4465 8.60465C13.1116 8.10233 12.6093 7.76744 12.0233 7.76744C11.7721 7.76744 11.6047 7.85116 11.3535 7.85116L7 9.69302V13.6279H8.67442V10.7814L10.1814 10.1953Z" fill="white"/>
</svg>
