<svg width="25" height="39" viewBox="0 0 25 39" fill="none" xmlns="http://www.w3.org/2000/svg">
<path d="M10.4609 34.0547V34.9141H7.84375V36.9355H11.3594V37.8242H3.29297V36.9355H6.76953V34.9141H4.26953V30.6953H10.3926V31.5645H5.35352V34.0547H10.4609ZM15.1094 31.9551C15.1094 32.9219 15.8223 33.8887 17.2188 34.2695L16.7109 35.1387C15.7002 34.8457 14.9775 34.2305 14.582 33.459C14.1914 34.3086 13.459 34.9727 12.4238 35.2852L11.8965 34.4355C13.2832 34.0352 14.0254 33.0098 14.0254 31.9551V31.8867H12.1797V31.0273H14.0254V30.0117H15.1191V31.0273H16.9551V31.8867H15.1094V31.9551ZM18.8984 30.041V32.2773H20.1289V33.1953H18.8984V35.4414H17.8145V30.041H18.8984ZM18.8984 35.8418V38.8789H17.8145V36.7109H13.0195V35.8418H18.8984Z" fill="#F06868"/>
<circle cx="12.5" cy="12.5" r="12.5" fill="#F06868"/>
<path d="M13.6333 7.08333L13.9667 8.75H18.3333V13.75H15.5333L15.2 12.0833H9.16667V7.08333H13.6333ZM15 5.41667H7.5V19.5833H9.16667V13.75H13.8333L14.1667 15.4167H20V7.08333H15.3333L15 5.41667Z" fill="white"/>
</svg>
