<svg width="30" height="30" viewBox="0 0 30 30" fill="none" xmlns="http://www.w3.org/2000/svg">
<circle cx="15" cy="15" r="15" fill="white"/>
<path d="M15 0C6.72 0 0 6.72 0 15C0 23.28 6.72 30 15 30C23.28 30 30 23.28 30 15C30 6.72 23.28 0 15 0ZM15 27C8.385 27 3 21.615 3 15C3 8.385 8.385 3 15 3C21.615 3 27 8.385 27 15C27 21.615 21.615 27 15 27ZM21.255 19.14L19.605 17.49C20.67 15.495 20.4 12.975 18.72 11.295C17.685 10.26 16.35 9.75 15 9.75C14.955 9.75 14.91 9.765 14.865 9.765L16.5 11.4L14.91 12.99L10.665 8.745L14.91 4.5L16.5 6.09L15.06 7.53C16.965 7.545 18.855 8.25 20.31 9.69C22.86 12.255 23.175 16.23 21.255 19.14ZM19.335 21.255L15.09 25.5L13.5 23.91L14.925 22.485C13.035 22.47 11.145 21.735 9.705 20.295C7.14 17.73 6.825 13.77 8.745 10.86L10.395 12.51C9.33 14.505 9.6 17.025 11.28 18.705C12.33 19.755 13.725 20.265 15.12 20.22L13.5 18.6L15.09 17.01L19.335 21.255Z" fill="#3660B2"/>
</svg>
