<svg width="27" height="39" viewBox="0 0 27 39" fill="none" xmlns="http://www.w3.org/2000/svg">
<path d="M3.49316 32.5508C3.49316 33.918 4.30371 35.4707 5.7002 36.1152L5.09473 36.9746C4.09863 36.5059 3.36133 35.5586 2.96582 34.4551C2.56543 35.666 1.79395 36.7012 0.77832 37.1895L0.143555 36.3398C1.5498 35.6758 2.39941 34.0156 2.40918 32.5508V31.8086H0.485352V30.9102H5.33887V31.8086H3.49316V32.5508ZM7.24316 30.041V33.4785H8.60059V34.3867H7.24316V38.8691H6.15918V30.041H7.24316ZM17.0283 34.2695V35.1387H8.97168V34.2695H12.4678V33.4297H9.95801V30.4414H16.0518V31.291H11.042V32.5703H16.1006V33.4297H13.5322V34.2695H17.0283ZM12.9854 35.6465C14.8896 35.6465 16.0322 36.2227 16.042 37.2578C16.0322 38.2832 14.8896 38.8691 12.9854 38.8691C11.0615 38.8691 9.90918 38.2832 9.90918 37.2578C9.90918 36.2227 11.0615 35.6465 12.9854 35.6465ZM12.9854 36.4766C11.6963 36.4766 11.0029 36.75 11.0127 37.2578C11.0029 37.7656 11.6963 38.0293 12.9854 38.0293C14.2451 38.0293 14.9482 37.7656 14.958 37.2578C14.9482 36.75 14.2451 36.4766 12.9854 36.4766ZM20.7197 32.8438C20.7197 34.1523 21.4619 35.5781 22.8193 36.2227L22.2139 37.043C21.2617 36.5986 20.5684 35.7246 20.2021 34.6895C19.8115 35.8027 19.084 36.7451 18.0732 37.1992L17.4775 36.3594C18.8643 35.7344 19.6455 34.2305 19.6455 32.8438V32.3848H17.7607V31.5156H19.6455V30.2266H20.7295V31.5156H22.585V32.3848H20.7197V32.8438ZM24.5283 30.041V33.5371H25.8857V34.4453H24.5283V38.8691H23.4443V30.041H24.5283Z" fill="#FFCB2A"/>
<circle cx="13.5" cy="12.5" r="12.5" fill="#FFCB2A"/>
<path d="M19.925 5.94688C19.7375 5.39375 19.2125 5 18.5937 5H8.28125C7.6625 5 7.14687 5.39375 6.95 5.94688L5 11.5625V19.0625C5 19.5781 5.42187 20 5.9375 20H6.875C7.39062 20 7.8125 19.5781 7.8125 19.0625V18.125H19.0625V19.0625C19.0625 19.5781 19.4844 20 20 20H20.9375C21.4531 20 21.875 19.5781 21.875 19.0625V11.5625L19.925 5.94688ZM8.28125 15.3125C7.50312 15.3125 6.875 14.6844 6.875 13.9062C6.875 13.1281 7.50312 12.5 8.28125 12.5C9.05937 12.5 9.6875 13.1281 9.6875 13.9062C9.6875 14.6844 9.05937 15.3125 8.28125 15.3125ZM18.5937 15.3125C17.8156 15.3125 17.1875 14.6844 17.1875 13.9062C17.1875 13.1281 17.8156 12.5 18.5937 12.5C19.3719 12.5 20 13.1281 20 13.9062C20 14.6844 19.3719 15.3125 18.5937 15.3125ZM6.875 10.625L8.28125 6.40625H18.5937L20 10.625H6.875Z" fill="white"/>
</svg>
