<svg width="34" height="34" viewBox="0 0 34 34" fill="none" xmlns="http://www.w3.org/2000/svg">
<path d="M17.0014 32.4426C25.5293 32.4426 32.4426 25.5293 32.4426 17.0014C32.4426 8.47336 25.5293 1.56006 17.0014 1.56006C8.47336 1.56006 1.56006 8.47336 1.56006 17.0014C1.56006 25.5293 8.47336 32.4426 17.0014 32.4426Z" stroke="black" stroke-width="1.58259" stroke-linecap="round" stroke-linejoin="round"/>
<path d="M8.7913 13.9932H8.7913V13.9916C8.7913 13.8601 8.83033 13.7315 8.90346 13.6221C8.9766 13.5128 9.08056 13.4275 9.20221 13.3772C9.32385 13.3269 9.45771 13.3138 9.58683 13.3396C9.71593 13.3653 9.83447 13.4288 9.92745 13.522C10.0204 13.6151 10.0837 13.7337 10.1092 13.8627C10.1347 13.9917 10.1213 14.1255 10.0708 14.2469C10.0203 14.3684 9.93482 14.4722 9.82526 14.5451C9.71569 14.618 9.58692 14.6568 9.45526 14.6566H9.45373C9.36661 14.6566 9.28035 14.6394 9.19988 14.606C9.11943 14.5727 9.04635 14.5237 8.98481 14.4621C8.92328 14.4005 8.87453 14.3273 8.84133 14.2469C8.80813 14.1664 8.79113 14.0802 8.7913 13.9932Z" fill="#935700" stroke="black" stroke-width="1.58259"/>
<path d="M23.6455 13.9916C23.6455 13.8601 23.6845 13.7316 23.7576 13.6223C23.8307 13.5129 23.9346 13.4277 24.0562 13.3773C24.1777 13.327 24.3115 13.3138 24.4406 13.3395C24.5697 13.3651 24.6882 13.4285 24.7812 13.5215C24.8743 13.6145 24.9376 13.733 24.9633 13.8619C24.9889 13.9909 24.9757 14.1246 24.9254 14.246C24.8751 14.3675 24.7898 14.4714 24.6804 14.5444C24.571 14.6175 24.4424 14.6566 24.3108 14.6566C24.1343 14.6566 23.9651 14.5865 23.8403 14.4617C23.7156 14.337 23.6455 14.1679 23.6455 13.9916Z" fill="#935700" stroke="black" stroke-width="1.58259"/>
<path d="M8.90088 24.5698C9.57543 23.0132 10.6905 21.6878 12.1089 20.7567C13.5273 19.8257 15.187 19.3296 16.8838 19.3296C18.5805 19.3296 20.2403 19.8257 21.6586 20.7567C23.077 21.6878 24.1921 23.0132 24.8667 24.5698" stroke="black" stroke-width="1.58259" stroke-linecap="round" stroke-linejoin="round"/>
<path d="M8.22461 9L12.0357 11.3092" stroke="black" stroke-width="1.58259" stroke-linecap="round" stroke-linejoin="round"/>
<path d="M25.5456 9L21.7317 11.3092" stroke="black" stroke-width="1.58259" stroke-linecap="round" stroke-linejoin="round"/>
</svg>
