<svg width="84" height="54" viewBox="0 0 84 54" fill="none" xmlns="http://www.w3.org/2000/svg">
<path d="M83.7902 50.1143H0.776245V32.5603C0.776245 27.288 5.16321 23.0132 10.5745 23.0132H73.9913C79.4026 23.0132 83.7896 27.2874 83.7896 32.5603V50.1143H83.7902Z" fill="#FFCD5E"/>
<path d="M83.7902 50.114H0.776245V53.3106H83.7902V50.114Z" fill="#D6DAE6"/>
<path d="M59.5117 31.3408H27.3449V15.6701C27.3449 7.01569 34.5456 0 43.4283 0C52.311 0 59.5117 7.01569 59.5117 15.6701V31.3408Z" fill="#FFCD5E"/>
<path d="M47.4344 12.323C47.4344 14.4783 45.6411 16.2261 43.4283 16.2261C41.2155 16.2261 39.4222 14.479 39.4222 12.323C39.4222 10.1671 41.2162 8.41992 43.4283 8.41992C45.6411 8.41992 47.4344 10.1677 47.4344 12.323Z" fill="#F5F5F5"/>
</svg>
