<svg width="34" height="34" viewBox="0 0 34 34" fill="none" xmlns="http://www.w3.org/2000/svg">
<path d="M17.0014 32.4426C25.5293 32.4426 32.4426 25.5293 32.4426 17.0014C32.4426 8.47336 25.5293 1.56006 17.0014 1.56006C8.47336 1.56006 1.56006 8.47336 1.56006 17.0014C1.56006 25.5293 8.47336 32.4426 17.0014 32.4426Z" stroke="black" stroke-width="1.58259" stroke-linecap="round" stroke-linejoin="round"/>
<path d="M24.8908 13.3705H24.8908V13.369C24.8908 13.2545 24.8569 13.1426 24.7934 13.0476C24.73 12.9525 24.6399 12.8786 24.5347 12.835C24.4294 12.7915 24.3137 12.7801 24.2022 12.8024C24.0906 12.8247 23.988 12.8797 23.9074 12.9606C23.8268 13.0414 23.7719 13.1445 23.7497 13.2568C23.7275 13.3691 23.7391 13.4855 23.783 13.5912C23.8269 13.6968 23.9011 13.7869 23.9959 13.8501C24.0908 13.9133 24.2021 13.9469 24.3159 13.9467V13.9467H24.3174C24.3927 13.9467 24.4672 13.9318 24.5368 13.9029C24.6064 13.874 24.6696 13.8317 24.7229 13.7782C24.7762 13.7247 24.8185 13.6612 24.8474 13.5912C24.8762 13.5213 24.891 13.4463 24.8908 13.3705Z" fill="#89201A" stroke="black" stroke-width="1.58259"/>
<path d="M10.9433 13.3705H10.9433V13.369C10.9433 13.2545 10.9094 13.1426 10.8459 13.0476C10.7825 12.9525 10.6924 12.8786 10.5871 12.835C10.4819 12.7915 10.3662 12.7801 10.2547 12.8024C10.1431 12.8247 10.0405 12.8797 9.95989 12.9606C9.87929 13.0414 9.82436 13.1445 9.80219 13.2568C9.78001 13.3691 9.79163 13.4855 9.83552 13.5912C9.87941 13.6968 9.95354 13.7869 10.0484 13.8501C10.1433 13.9133 10.2546 13.9469 10.3684 13.9467V13.9467H10.3699C10.4452 13.9467 10.5197 13.9318 10.5893 13.9029C10.6589 13.874 10.7221 13.8317 10.7754 13.7782C10.8287 13.7247 10.871 13.6612 10.8999 13.5912C10.9287 13.5213 10.9435 13.4463 10.9433 13.3705Z" fill="#89201A" stroke="black" stroke-width="1.58259"/>
<path d="M24.8362 23.3133C24.2029 21.85 23.1561 20.604 21.8246 19.7287C20.4931 18.8534 18.935 18.3871 17.3421 18.3871C15.7493 18.3871 14.1912 18.8534 12.8596 19.7287C11.5281 20.604 10.4813 21.85 9.84807 23.3133" stroke="black" stroke-width="1.58259" stroke-linecap="round" stroke-linejoin="round"/>
</svg>
