<svg width="32" height="32" viewBox="0 0 32 32" fill="none" xmlns="http://www.w3.org/2000/svg">
<path d="M30.7311 19.2056C32.6041 11.2696 27.6892 3.31777 19.7532 1.4447C11.8172 -0.42836 3.86538 4.48661 1.99231 12.4226C0.119249 20.3586 5.03422 28.3104 12.9702 30.1835C20.9062 32.0565 28.858 27.1416 30.7311 19.2056Z" stroke="black" stroke-width="1.58259" stroke-linecap="round" stroke-linejoin="round"/>
<path d="M8.4082 12.38C8.4082 12.122 8.48472 11.8697 8.62809 11.6552C8.77145 11.4406 8.97522 11.2734 9.21362 11.1746C9.45203 11.0759 9.71437 11.05 9.96746 11.1004C10.2206 11.1507 10.453 11.275 10.6355 11.4575C10.818 11.6399 10.9422 11.8724 10.9926 12.1255C11.0429 12.3786 11.0171 12.6409 10.9183 12.8793C10.8196 13.1177 10.6523 13.3215 10.4378 13.4649C10.2232 13.6082 9.97097 13.6848 9.71292 13.6848C9.36689 13.6848 9.03503 13.5473 8.79035 13.3026C8.54566 13.0579 8.4082 12.7261 8.4082 12.38Z" fill="black"/>
<path d="M21.7168 12.38C21.7168 12.122 21.7933 11.8697 21.9367 11.6552C22.08 11.4406 22.2838 11.2734 22.5222 11.1746C22.7606 11.0759 23.023 11.05 23.2761 11.1004C23.5291 11.1507 23.7616 11.275 23.9441 11.4575C24.1266 11.6399 24.2508 11.8724 24.3012 12.1255C24.3515 12.3786 24.3257 12.6409 24.2269 12.8793C24.1282 13.1177 23.9609 13.3215 23.7464 13.4649C23.5318 13.6082 23.2796 13.6848 23.0215 13.6848C22.6755 13.6848 22.3436 13.5473 22.0989 13.3026C21.8543 13.0579 21.7168 12.7261 21.7168 12.38Z" fill="black"/>
<path d="M24.3061 18.2877C23.7782 19.9804 22.7232 21.46 21.295 22.5106C19.8668 23.5613 18.1402 24.1279 16.3672 24.1279C14.5941 24.1279 12.8675 23.5613 11.4393 22.5106C10.0111 21.46 8.95608 19.9804 8.42822 18.2877" stroke="black" stroke-width="1.58259" stroke-linecap="round" stroke-linejoin="round"/>
<path d="M9.05927 17.9231L7.5459 18.6496" stroke="black" stroke-width="1.58259" stroke-linecap="round" stroke-linejoin="round"/>
<path d="M23.675 17.9231L25.1884 18.6496" stroke="black" stroke-width="1.58259" stroke-linecap="round" stroke-linejoin="round"/>
</svg>
