<svg width="53" height="53" viewBox="0 0 53 53" fill="none" xmlns="http://www.w3.org/2000/svg">
<rect width="52.4" height="52.409" rx="26.2" fill="#FF0000"/>
<path d="M18.2036 24.5047C20.2036 28.4353 23.4258 31.6436 27.3563 33.6575L30.4119 30.602C30.7869 30.227 31.3424 30.102 31.8286 30.2686C33.3841 30.7825 35.0647 31.0603 36.7869 31.0603C37.5508 31.0603 38.1758 31.6853 38.1758 32.4492V37.2964C38.1758 38.0603 37.5508 38.6853 36.7869 38.6853C23.7452 38.6853 13.1758 28.1159 13.1758 15.0742C13.1758 14.3103 13.8008 13.6853 14.5647 13.6853H19.4258C20.1897 13.6853 20.8147 14.3103 20.8147 15.0742C20.8147 16.8103 21.0924 18.477 21.6063 20.0325C21.7591 20.5186 21.648 21.0603 21.2591 21.4492L18.2036 24.5047Z" fill="white"/>
</svg>
