<svg width="25" height="39" viewBox="0 0 25 39" fill="none" xmlns="http://www.w3.org/2000/svg">
<path d="M7.625 35.5586C9.53906 35.5684 10.75 36.1738 10.7598 37.2188C10.75 38.2441 9.53906 38.8594 7.625 38.8594C5.7207 38.8594 4.5 38.2441 4.5 37.2188C4.5 36.1738 5.7207 35.5684 7.625 35.5586ZM7.625 36.3789C6.35547 36.3789 5.58398 36.6816 5.59375 37.2188C5.58398 37.7363 6.35547 38.0195 7.625 38.0195C8.9043 38.0195 9.67578 37.7363 9.68555 37.2188C9.67578 36.6816 8.9043 36.3789 7.625 36.3789ZM10.7012 30.4609V31.1934C10.7012 31.8867 10.7012 32.6289 10.457 33.5371L9.38281 33.4395C9.60254 32.5801 9.61719 31.96 9.61719 31.3203H4.58789V30.4609H10.7012ZM11.6777 34.0449V34.9238H3.66992V34.0449H6.77539V32.4434H7.84961V34.0449H11.6777ZM20.3496 34.9922V35.8711H18.3867V38.8691H17.2832V35.8711H15.3301V38.8691H14.2168V35.8711H12.2832V34.9922H20.3496ZM16.2969 30.3535C18.1719 30.3633 19.4805 31.125 19.4805 32.3262C19.4805 33.5078 18.1719 34.2598 16.2969 34.2598C14.4121 34.2598 13.123 33.5078 13.1328 32.3262C13.123 31.125 14.4121 30.3633 16.2969 30.3535ZM16.2969 31.2324C15.0469 31.2324 14.2363 31.6328 14.2461 32.3262C14.2363 33 15.0469 33.4004 16.2969 33.4004C17.5469 33.4004 18.3574 33 18.3574 32.3262C18.3574 31.6328 17.5469 31.2324 16.2969 31.2324Z" fill="#A1A1A1"/>
<circle cx="12.5" cy="12.5" r="12.5" fill="#A1A1A1"/>
<path d="M15.8333 15.1689C15.2844 15.1689 14.7933 15.3856 14.4178 15.725L9.26833 12.7278C9.30444 12.5617 9.33333 12.3956 9.33333 12.2222C9.33333 12.0489 9.30444 11.8828 9.26833 11.7167L14.36 8.74833C14.75 9.10944 15.2628 9.33333 15.8333 9.33333C17.0322 9.33333 18 8.36556 18 7.16667C18 5.96778 17.0322 5 15.8333 5C14.6344 5 13.6667 5.96778 13.6667 7.16667C13.6667 7.34 13.6956 7.50611 13.7317 7.67222L8.64 10.6406C8.25 10.2794 7.73722 10.0556 7.16667 10.0556C5.96778 10.0556 5 11.0233 5 12.2222C5 13.4211 5.96778 14.3889 7.16667 14.3889C7.73722 14.3889 8.25 14.165 8.64 13.8039L13.7822 16.8083C13.7461 16.96 13.7244 17.1189 13.7244 17.2778C13.7244 18.4406 14.6706 19.3867 15.8333 19.3867C16.9961 19.3867 17.9422 18.4406 17.9422 17.2778C17.9422 16.115 16.9961 15.1689 15.8333 15.1689Z" fill="white"/>
</svg>
