<svg width="16" height="13" viewBox="0 0 16 13" fill="none" xmlns="http://www.w3.org/2000/svg">
<path fill-rule="evenodd" clip-rule="evenodd" d="M11.6145 13.0032L11.2188 12.2142C11.2188 12.1232 8.40796 10.707 8.01219 10.3934C7.71793 10.1507 8.17454 9.56395 8.74282 9.64489C9.05738 9.68533 9.78801 10.1507 9.94021 10.0596C10.0924 9.96858 9.65607 9.08854 9.65607 9.08854L8.3775 6.26627C8.36735 6.155 8.38766 6.05384 8.43838 5.95268C8.48914 5.86163 8.57031 5.78074 8.67176 5.74025C8.77324 5.69981 8.88487 5.67958 8.98635 5.70992C9.08783 5.73014 9.18928 5.79085 9.26034 5.87175L9.93006 7.32841C9.96052 7.1868 10.0417 7.05531 10.1533 6.95415C10.2649 6.85299 10.407 6.80239 10.5491 6.79228C10.6505 6.80239 10.752 6.83273 10.8433 6.88333C10.9346 6.93388 11.0158 6.9946 11.0868 7.07553C11.0868 7.07553 11.6247 6.33709 12.1726 7.03504C12.4771 6.73161 12.7713 6.58996 13.1468 6.8125C13.9484 8.74458 14.5573 9.56395 14.3341 10.4238L14.8617 11.6073L11.6145 13.0032Z" fill="#A1A1A1"/>
<path d="M10.6403 8.48652L10.001 7.07031" stroke="#A1A1A1" stroke-width="1.9065" stroke-miterlimit="10" stroke-linecap="square"/>
<path d="M11.7769 8.30501L11.1274 6.82812" stroke="#A1A1A1" stroke-width="1.9065" stroke-miterlimit="10" stroke-linecap="square"/>
<path fill-rule="evenodd" clip-rule="evenodd" d="M12.8322 8.14456L12.3857 7.15325L12.2335 6.78906" fill="#A1A1A1"/>
<path d="M12.8322 8.14456L12.3857 7.15325L12.2335 6.78906" stroke="#A1A1A1" stroke-width="1.9065" stroke-miterlimit="10" stroke-linecap="square"/>
<path fill-rule="evenodd" clip-rule="evenodd" d="M4.15604 1.49652C4.99827 1.17282 5.91157 1.11211 6.78425 1.30432C7.65689 1.49652 8.45855 1.95171 9.07755 2.59911C9.69655 3.2465 10.1126 4.06588 10.2648 4.94592C10.417 5.82601 10.3155 6.73639 9.95024 7.55576C9.58492 8.37514 8.99638 9.07309 8.23533 9.55866C7.47428 10.0442 6.59144 10.2971 5.69845 10.2768C4.79535 10.2566 3.92267 9.98351 3.18188 9.46761C2.44113 8.96182 1.87289 8.2436 1.53803 7.41416C1.09154 6.2812 1.12195 5.02686 1.60906 3.91416C2.11642 2.81153 3.01952 1.93149 4.15604 1.49652Z" fill="#A1A1A1"/>
<path fill-rule="evenodd" clip-rule="evenodd" d="M4.04447 1.20242C3.15152 1.56657 2.38031 2.18362 1.84249 2.98274C1.30467 3.78189 1.01042 4.72264 1.00026 5.68363C0.990111 6.64461 1.27421 7.59547 1.80188 8.39458C2.32955 9.20385 3.0906 9.83102 3.98359 10.2053C4.87658 10.5796 5.86086 10.6807 6.80457 10.5087C7.75843 10.3267 8.63111 9.87147 9.32114 9.19374C10.0112 8.51597 10.4881 7.65614 10.6809 6.70528C10.8737 5.76456 10.7925 4.78332 10.4272 3.88305C10.1837 3.28621 9.82851 2.75009 9.38201 2.28478C8.92537 1.82959 8.38758 1.46541 7.79904 1.21253C7.21045 0.959619 6.57119 0.828125 5.92173 0.828125C5.27232 0.838237 4.63301 0.959618 4.04447 1.20242ZM4.26773 1.78911C5.04909 1.48563 5.90147 1.42496 6.71324 1.60701C7.52505 1.78911 8.27595 2.21396 8.85434 2.8108C9.43277 3.4177 9.81836 4.17641 9.96041 4.99574C10.1025 5.81512 10.001 6.66483 9.66615 7.42349C9.33129 8.19227 8.77316 8.83966 8.07299 9.28478C7.37285 9.73997 6.55088 9.97262 5.70866 9.9524C4.87658 9.94229 4.05462 9.67926 3.37474 9.20385C2.68472 8.72839 2.15705 8.06078 1.84249 7.292C1.42645 6.23997 1.45687 5.06657 1.90336 4.03476C2.37016 3.01311 3.22254 2.19374 4.26773 1.78911Z" fill="#A1A1A1"/>
<path d="M4.14599 1.54688C3.08054 4.14661 4.88678 8.64803 7.76863 9.75066" stroke="#A1A1A1" stroke-width="1.9065" stroke-linecap="round" stroke-linejoin="round"/>
<path d="M4.17651 1.53125C7.75854 2.98791 8.50944 7.68154 7.89048 9.86653" stroke="#A1A1A1" stroke-width="1.9065" stroke-linecap="round" stroke-linejoin="round"/>
<path d="M4.19678 9.7958C4.93752 8.96632 5.86093 8.30881 6.89597 7.89407C7.93101 7.47932 9.04722 7.29723 10.1634 7.37817" stroke="#A1A1A1" stroke-width="1.9065" stroke-linecap="round" stroke-linejoin="round"/>
<path d="M7.46416 1.64062C6.38851 3.09728 4.13577 4.01782 1.9541 3.89643" stroke="#A1A1A1" stroke-width="1.9065" stroke-linecap="round" stroke-linejoin="round"/>
<path d="M1.74097 7.56118C5.3636 5.93258 6.91616 5.26492 10.0416 3.92969" stroke="#A1A1A1" stroke-width="1.9065" stroke-linecap="round" stroke-linejoin="round"/>
<path fill-rule="evenodd" clip-rule="evenodd" d="M4.57206 0.649398C5.41429 0.3257 6.33773 0.254878 7.22053 0.457194C8.10337 0.65951 8.90503 1.10459 9.52399 1.76209C10.143 2.40949 10.5692 3.22886 10.7214 4.11902C10.8838 5.00922 10.7721 5.9196 10.4068 6.73898C10.0415 7.56846 9.44281 8.26642 8.68176 8.75198C7.92071 9.23751 7.03787 9.49042 6.13477 9.48031C5.23163 9.4702 4.34883 9.18695 3.60805 8.67105C2.8673 8.15515 2.28891 7.43693 1.95405 6.60748C1.50755 5.47452 1.53797 4.21007 2.02507 3.08726C2.52229 1.96441 3.43554 1.09448 4.57206 0.649398Z" fill="white"/>
<path fill-rule="evenodd" clip-rule="evenodd" d="M4.46051 0.355531C3.56757 0.719716 2.80651 1.34689 2.26869 2.146C1.73087 2.94515 1.43661 3.88587 1.43661 4.84685C1.43661 5.80783 1.71056 6.74858 2.24839 7.55785C2.77606 8.35696 3.53711 8.99424 4.4301 9.36854C5.32305 9.74279 6.29721 9.84395 7.25107 9.67201C8.20493 9.48992 9.07762 9.03473 9.76764 8.36711C10.4577 7.68934 10.9346 6.82952 11.1375 5.88876C11.3405 4.948 11.2491 3.9668 10.894 3.07664C10.4069 1.87286 9.45305 0.91188 8.2455 0.396019C7.02785 -0.119883 5.66806 -0.129994 4.46051 0.355531ZM4.69393 0.942255C5.47529 0.638781 6.33782 0.578071 7.15974 0.770275C7.98167 0.952367 8.72245 1.37722 9.311 1.98413C9.88939 2.59108 10.275 3.34974 10.4272 4.17923C10.5693 5.00872 10.4678 5.85843 10.1329 6.61709C9.79806 7.38587 9.23997 8.03326 8.52964 8.48849C7.81931 8.94368 6.99739 9.17633 6.15516 9.16622C5.31289 9.15611 4.50112 8.89308 3.80094 8.41767C3.11092 7.94226 2.57309 7.2746 2.25854 6.49571C1.8425 5.43357 1.86281 4.26016 2.31941 3.21825C2.77606 2.17633 3.62844 1.357 4.69393 0.942255Z" fill="#A1A1A1"/>
<path fill-rule="evenodd" clip-rule="evenodd" d="M4.31852 0.605298C3.76043 1.9608 3.94305 3.82209 4.65338 5.48102C5.36371 7.14 6.59156 8.5865 8.09336 9.17323C8.15423 9.19345 8.2253 9.19345 8.28617 9.17323C8.34704 9.14289 8.3978 9.1024 8.41807 9.03162C8.42822 9.00125 8.43837 8.97091 8.43837 8.94057C8.43837 8.91024 8.42822 8.87986 8.41807 8.84953C8.40795 8.81919 8.38765 8.78882 8.35719 8.76859C8.33689 8.74837 8.30647 8.72815 8.27602 8.71803C6.89597 8.18191 5.7696 6.82641 5.12018 5.28882C4.47072 3.75127 4.27795 2.04173 4.79547 0.797503C4.80558 0.767168 4.81574 0.736832 4.81574 0.706457C4.81574 0.676122 4.80558 0.645786 4.79547 0.615451C4.78532 0.585075 4.76502 0.55474 4.74471 0.534516C4.72441 0.514293 4.69399 0.494029 4.66353 0.483918C4.60266 0.463694 4.53164 0.463694 4.47072 0.483918C4.38955 0.494029 4.33883 0.544628 4.31852 0.605298Z" fill="#A1A1A1"/>
<path fill-rule="evenodd" clip-rule="evenodd" d="M4.50106 0.898485C5.29257 1.25252 5.99274 1.76842 6.57114 2.41581C7.13938 3.06321 7.56557 3.83203 7.80914 4.66147C8.30635 6.04735 8.40783 7.5343 8.08309 8.97073C8.07297 9.00107 8.07297 9.03145 8.07297 9.07189C8.07297 9.11234 8.08309 9.1326 8.10339 9.16294C8.12369 9.19327 8.144 9.2135 8.16426 9.23372C8.19472 9.25398 8.21502 9.2641 8.25559 9.27421C8.31651 9.29443 8.38753 9.28432 8.4484 9.25398C8.50928 9.22361 8.54989 9.17305 8.57019 9.10223C8.9152 7.56468 8.81372 5.97652 8.28605 4.48953C8.01206 3.59937 7.55545 2.76989 6.93645 2.07189C6.31745 1.37394 5.5564 0.81755 4.69387 0.433183C4.66341 0.412959 4.633 0.392696 4.59239 0.382584C4.55178 0.372472 4.52136 0.372472 4.48075 0.382584C4.44019 0.392696 4.40973 0.412959 4.37927 0.433183C4.34886 0.453406 4.32855 0.493853 4.3184 0.524229C4.30825 0.554564 4.2981 0.595011 4.2981 0.635499C4.2981 0.675946 4.30825 0.706281 4.32855 0.746769C4.34886 0.777104 4.36916 0.807439 4.39958 0.827662C4.43003 0.847926 4.4706 0.868149 4.50106 0.868149V0.898485Z" fill="#A1A1A1"/>
<path fill-rule="evenodd" clip-rule="evenodd" d="M4.80558 9.14242C5.52607 8.33319 6.41906 7.70602 7.42364 7.30139C8.42822 6.89676 9.51402 6.72482 10.5896 6.80571C10.6505 6.80571 10.7216 6.78549 10.7723 6.74504C10.823 6.70456 10.8535 6.64389 10.8636 6.57306C10.8636 6.51239 10.8433 6.44157 10.8027 6.39097C10.7621 6.34041 10.7013 6.31008 10.6302 6.29997C9.47341 6.21903 8.30648 6.40112 7.23083 6.83609C6.15522 7.27106 5.19121 7.94879 4.42 8.81872C4.3997 8.83894 4.37939 8.86932 4.36924 8.89965C4.35913 8.92999 4.35913 8.96037 4.35913 9.00081C4.35913 9.03115 4.36924 9.06152 4.38955 9.09186C4.3997 9.12219 4.42 9.14242 4.45046 9.17279C4.47072 9.19302 4.50118 9.21324 4.53164 9.22335C4.56205 9.23346 4.59251 9.23346 4.63308 9.23346C4.66354 9.23346 4.69399 9.22335 4.72441 9.20313C4.75486 9.19302 4.78532 9.17279 4.80558 9.14242Z" fill="#A1A1A1"/>
<path fill-rule="evenodd" clip-rule="evenodd" d="M7.69753 0.636055C6.65234 2.04211 4.48078 2.91205 2.38029 2.80078C2.30923 2.80078 2.24835 2.821 2.19763 2.86149C2.14687 2.90194 2.11646 2.97276 2.11646 3.03343C2.11646 3.10425 2.13672 3.16496 2.17733 3.21552C2.2179 3.26612 2.28896 3.29646 2.34983 3.29646C4.62283 3.41784 6.9669 2.44675 8.09327 0.929417C8.11357 0.899042 8.12372 0.868706 8.13388 0.838371C8.14403 0.808035 8.14403 0.77766 8.13388 0.737213C8.13388 0.706878 8.11357 0.676502 8.10342 0.646167C8.08312 0.615832 8.06281 0.595608 8.03239 0.575344C7.98163 0.534897 7.91061 0.524785 7.84974 0.534897C7.78886 0.555121 7.7381 0.585455 7.69753 0.636055Z" fill="#A1A1A1"/>
<path fill-rule="evenodd" clip-rule="evenodd" d="M2.24842 6.97299C5.89135 5.34435 7.44391 4.66662 10.5794 3.32123C10.6201 3.31112 10.6505 3.30101 10.6809 3.28079C10.7114 3.26056 10.7317 3.23019 10.752 3.19985C10.7723 3.16952 10.7824 3.12903 10.7824 3.08858C10.7824 3.04814 10.7723 3.01776 10.7621 2.97731C10.752 2.94698 10.7215 2.9166 10.6911 2.88627C10.6606 2.86604 10.6302 2.84582 10.5896 2.83571C10.549 2.8256 10.5186 2.8256 10.478 2.83571C10.4374 2.84582 10.4069 2.85593 10.3765 2.87616C7.26125 4.21143 5.67824 4.89927 2.04549 6.52787C2.00488 6.53803 1.97443 6.54814 1.94401 6.57847C1.91355 6.5987 1.89325 6.62903 1.87299 6.65941C1.85268 6.68974 1.84253 6.73019 1.84253 6.76056C1.84253 6.80101 1.85268 6.83135 1.86283 6.87183C1.87299 6.90217 1.9034 6.9325 1.92371 6.96288C1.95416 6.9831 1.98458 7.00333 2.02519 7.01344C2.06576 7.02355 2.09621 7.02355 2.13682 7.01344C2.18754 7.00333 2.218 6.99322 2.24842 6.97299Z" fill="#A1A1A1"/>
<path fill-rule="evenodd" clip-rule="evenodd" d="M12.0813 11.9754L11.6957 11.1864C11.6957 11.0954 8.87473 9.68934 8.479 9.36564C8.18471 9.12284 8.64135 8.53616 9.20959 8.61709C9.52419 8.66765 10.2649 9.12284 10.407 9.03184C10.5592 8.94079 10.1229 8.0607 10.1229 8.0607L8.83417 5.22836C8.82401 5.11709 8.84428 5.01593 8.90519 4.92489C8.95591 4.83384 9.03709 4.76302 9.13857 4.71246C9.24005 4.67201 9.34153 4.65175 9.45313 4.67201C9.55461 4.69224 9.65609 4.7428 9.72711 4.82373L10.3968 6.28039C10.4273 6.13874 10.5085 6.00725 10.6201 5.90609C10.7317 5.80493 10.8738 5.75438 11.026 5.74426C11.1275 5.75438 11.229 5.78471 11.3203 5.82516C11.4116 5.87576 11.4928 5.93647 11.5537 6.01736C11.5537 6.01736 12.0915 5.27892 12.6394 5.97691C12.9337 5.67344 13.2381 5.53184 13.6136 5.75437C14.4152 7.68645 15.0241 8.51593 14.8008 9.37576L15.3285 10.5593L12.0813 11.9754Z" fill="white"/>
<path fill-rule="evenodd" clip-rule="evenodd" d="M9.81839 8.39829H9.77782C9.61543 8.31736 9.44292 8.2668 9.27041 8.22632C9.07764 8.19598 8.87468 8.2162 8.69202 8.28703C8.50936 8.35785 8.33685 8.46912 8.20496 8.61072C8.12378 8.68155 8.06291 8.76244 8.0223 8.85349C7.98169 8.94453 7.96143 9.04569 7.96143 9.14685C7.96143 9.24801 7.98169 9.34916 8.0223 9.44021C8.06291 9.53126 8.12378 9.6223 8.20496 9.68297C8.56012 9.97634 10.8331 11.1396 11.3506 11.4532L11.8682 12.5052L15.8764 10.7754L15.2371 9.33905C15.298 8.94453 15.2574 8.5399 15.1052 8.16564C14.9023 7.54858 14.4862 6.77981 13.9991 5.6064L13.9484 5.48502L13.8368 5.4142C13.6338 5.2827 13.3903 5.22199 13.1467 5.25233C12.9742 5.27259 12.8017 5.34337 12.6597 5.44453C12.5278 5.35349 12.3755 5.30293 12.2132 5.2827C11.9899 5.27259 11.7768 5.33326 11.5942 5.46476L11.5536 5.49513C11.4014 5.40409 11.239 5.35349 11.0564 5.34337C10.8636 5.34337 10.6708 5.40409 10.5084 5.50524L10.1025 4.64542L10.0721 4.60493C9.94017 4.45322 9.76767 4.34195 9.5647 4.3015C9.37189 4.26101 9.15882 4.28124 8.97616 4.36217C8.7935 4.44311 8.6413 4.58471 8.53982 4.75669C8.43834 4.92863 8.40792 5.13095 8.43834 5.33326V5.38386L9.77782 8.2668L9.83869 8.41852L9.81839 8.39829ZM12.0813 11.9792L11.6957 11.1902C11.6753 11.0991 8.87468 9.69308 8.47894 9.36939C8.18465 9.12662 8.6413 8.5399 9.20954 8.62083C9.52414 8.67143 10.2649 9.12662 10.4069 9.03558C10.549 8.94453 10.1228 8.06449 10.1228 8.06449L8.83411 5.2321C8.82396 5.12084 8.84422 5.01968 8.90514 4.92863C8.95586 4.83763 9.03703 4.7668 9.13852 4.7162C9.24 4.67576 9.34148 4.65553 9.45307 4.67576C9.55455 4.69598 9.65603 4.74658 9.72706 4.82747L10.4069 6.28413C10.4374 6.14253 10.5186 6.01103 10.6302 5.90988C10.7418 5.80872 10.8839 5.75812 11.0361 5.74801C11.1376 5.75812 11.239 5.78845 11.3304 5.82894C11.4217 5.8795 11.5028 5.94021 11.5638 6.02114C11.5638 6.02114 12.1016 5.2827 12.6495 5.98066C12.9438 5.67718 13.2482 5.53558 13.6237 5.75812C14.4253 7.69019 15.0443 8.51968 14.8109 9.3795L15.3386 10.563L12.0813 11.9792Z" fill="#A1A1A1"/>
<path fill-rule="evenodd" clip-rule="evenodd" d="M11.442 7.55058L10.6404 5.75L10.2649 5.92198L11.0666 7.72252L11.442 7.55058Z" fill="#A1A1A1"/>
<path fill-rule="evenodd" clip-rule="evenodd" d="M12.5177 7.39801L11.7059 5.54688L11.3203 5.7087L12.1321 7.55984L12.5177 7.39801Z" fill="#A1A1A1"/>
<path fill-rule="evenodd" clip-rule="evenodd" d="M13.2989 7.13675L12.8524 6.14543L12.7002 5.78125" fill="#A1A1A1"/>
<path fill-rule="evenodd" clip-rule="evenodd" d="M13.5728 7.23206L13.0452 6.03842L12.8016 5.49219L12.416 5.65402L12.6595 6.20025L13.1974 7.38377L13.5728 7.23206Z" fill="#A1A1A1"/>
</svg>
