<svg width="11" height="13" viewBox="0 0 11 13" fill="none" xmlns="http://www.w3.org/2000/svg">
<path d="M5.47368 0C2.44947 0 0 0.342105 0 2.73684V9.23684C0 10.5574 1.07421 11.6316 2.39474 11.6316L1.36842 12.6579V13H9.57895V12.6579L8.55263 11.6316C9.87316 11.6316 10.9474 10.5574 10.9474 9.23684V2.73684C10.9474 0.342105 8.4979 0 5.47368 0ZM2.39474 10.2632C1.82684 10.2632 1.36842 9.80474 1.36842 9.23684C1.36842 8.66895 1.82684 8.21053 2.39474 8.21053C2.96263 8.21053 3.42105 8.66895 3.42105 9.23684C3.42105 9.80474 2.96263 10.2632 2.39474 10.2632ZM4.78947 6.1579H1.36842V2.73684H4.78947V6.1579ZM8.55263 10.2632C7.98474 10.2632 7.52632 9.80474 7.52632 9.23684C7.52632 8.66895 7.98474 8.21053 8.55263 8.21053C9.12053 8.21053 9.57895 8.66895 9.57895 9.23684C9.57895 9.80474 9.12053 10.2632 8.55263 10.2632ZM9.57895 6.1579H6.1579V2.73684H9.57895V6.1579Z" fill="#A1A1A1"/>
</svg>
