<svg width="14" height="13" viewBox="0 0 14 13" fill="none" xmlns="http://www.w3.org/2000/svg">
<path d="M2.93049 8.96301H4.99297L4.03504 11.958H1.30005C1.15734 11.958 1.04004 11.8407 1.04004 11.698C1.04004 11.6472 1.05568 11.5983 1.08305 11.5553L2.71349 9.07836C2.76236 9.00798 2.84447 8.96301 2.93049 8.96301Z" fill="white"/>
<path d="M4.79356 13H1.30005C0.582578 13 0 12.4174 0 11.7C0 11.4458 0.0742885 11.1975 0.215046 10.9844L1.84548 8.50751C2.08594 8.14193 2.49258 7.92297 2.93049 7.92297H6.41814L4.79356 13ZM2.93049 8.96301C2.84251 8.96301 2.76236 9.00602 2.71349 9.08031L1.08305 11.5572C1.05568 11.6003 1.04004 11.6491 1.04004 11.7C1.04004 11.8427 1.15734 11.96 1.30005 11.96H4.03504L4.99297 8.96497H2.93049V8.96301Z" fill="#A1A1A1"/>
<path d="M5.77299 8.96301H7.91562L8.41023 11.96H5.27838L5.77299 8.96301Z" fill="white"/>
<path d="M9.63601 13H4.05264L4.88937 7.92493H8.79929L9.63601 13ZM5.2784 11.96H8.41025L7.91565 8.96301H5.77301L5.2784 11.96Z" fill="#A1A1A1"/>
<path d="M8.97913 8.96301H11.0416C11.1296 8.96301 11.2097 9.00602 11.2586 9.08031L12.891 11.5572C12.9692 11.6765 12.936 11.8388 12.8167 11.917C12.7737 11.9443 12.7248 11.96 12.674 11.96H9.93901L8.97913 8.96301Z" fill="white"/>
<path d="M12.674 13H9.18048L7.55591 7.92297H11.0436C11.4815 7.92297 11.8881 8.14193 12.1286 8.50751L13.759 10.9844C13.9506 11.2738 14.0171 11.6218 13.9467 11.9619C13.8763 12.3021 13.6788 12.5934 13.3876 12.785C13.1764 12.9257 12.9281 13 12.674 13ZM9.93901 11.96H12.674C12.7248 11.96 12.7737 11.9443 12.8167 11.917C12.8949 11.8661 12.9203 11.7918 12.9281 11.7527C12.936 11.7136 12.9418 11.6354 12.891 11.5572L11.2606 9.08227C11.2117 9.00798 11.1315 8.96497 11.0436 8.96497H8.97912L9.93901 11.96Z" fill="#A1A1A1"/>
<path d="M7.3272 10.0368C9.64187 8.03684 10.7992 6.2461 10.7992 4.66649C10.7992 2.18369 8.79147 0.52002 6.98704 0.52002C5.18261 0.52002 3.17487 2.18369 3.17487 4.66649C3.17487 6.2461 4.3322 8.03489 6.64883 10.0368C6.84237 10.2049 7.13171 10.2049 7.3272 10.0368Z" fill="#A1A1A1"/>
<path d="M6.98704 10.6819C6.74267 10.6819 6.50025 10.5978 6.30671 10.4297C3.84933 8.30663 2.65485 6.42009 2.65485 4.66649C2.65485 1.87481 4.89523 0 6.98704 0C9.07885 0 11.3192 1.87481 11.3192 4.66649C11.3192 6.42009 10.1248 8.30663 7.66541 10.4297C7.47382 10.5978 7.22945 10.6819 6.98704 10.6819ZM6.98704 1.04004C5.42894 1.04004 3.69489 2.52972 3.69489 4.66649C3.69489 6.07993 4.80335 7.75533 6.98704 9.64382C9.17269 7.75533 10.2792 6.07993 10.2792 4.66649C10.2792 2.52972 8.54514 1.04004 6.98704 1.04004Z" fill="#A1A1A1"/>
<path d="M5.08093 4.33419C5.08093 4.83971 5.28175 5.32453 5.63921 5.68199C5.99667 6.03945 6.48149 6.24027 6.98702 6.24027C7.49254 6.24027 7.97736 6.03945 8.33483 5.68199C8.69229 5.32453 8.89311 4.83971 8.89311 4.33419C8.89311 3.82866 8.69229 3.34384 8.33483 2.98638C7.97736 2.62892 7.49254 2.4281 6.98702 2.4281C6.48149 2.4281 5.99667 2.62892 5.63921 2.98638C5.28175 3.34384 5.08093 3.82866 5.08093 4.33419Z" fill="white"/>
<path d="M6.98702 6.76029C5.64983 6.76029 4.56091 5.67138 4.56091 4.33419C4.56091 2.99699 5.64983 1.90808 6.98702 1.90808C8.32421 1.90808 9.41313 2.99504 9.41313 4.33419C9.41313 5.67334 8.32421 6.76029 6.98702 6.76029ZM6.98702 2.94617C6.22263 2.94617 5.60095 3.56784 5.60095 4.33223C5.60095 5.09662 6.22263 5.7183 6.98702 5.7183C7.75141 5.7183 8.37309 5.09662 8.37309 4.33223C8.37309 3.56784 7.75141 2.94617 6.98702 2.94617Z" fill="#A1A1A1"/>
</svg>
