<svg width="25" height="39" viewBox="0 0 25 39" fill="none" xmlns="http://www.w3.org/2000/svg">
<path d="M11.3203 33.8594V34.6602H7.84375V35.3047H10.334V37.375H5.31445V37.9805H10.5781V38.791H4.25V36.6328H9.26953V36.0859H4.24023V35.3047H6.76953V34.6602H3.3125V33.8594H11.3203ZM7.84375 30.0215V30.7637H10.5488V31.5742H7.96094C8.1709 32.1992 9.19629 32.668 10.959 32.7559L10.6367 33.5664C9.05469 33.4688 7.86328 33.0391 7.30664 32.3262C6.75 33.0391 5.56348 33.4688 3.9668 33.5664L3.66406 32.7559C5.40723 32.668 6.43262 32.1992 6.66211 31.5742H4.08398V30.7637H6.76953V30.0215H7.84375ZM13.3125 30.4316V31.5547H15.373V30.4316H16.4473V34.2793H12.2383V30.4316H13.3125ZM13.3125 33.4199H15.373V32.375H13.3125V33.4199ZM18.8984 30.041V31.8281H20.1289V32.707H18.8984V34.5625H17.8145V30.041H18.8984ZM18.8984 34.9141V37.2285H14.2109V37.9316H19.1719V38.791H13.1367V36.4375H17.8145V35.7637H13.127V34.9141H18.8984Z" fill="#66DE80"/>
<path d="M12.5 0C5.59675 0 0 5.59648 0 12.5C0 19.4035 5.59675 25 12.5 25C19.4035 25 25 19.4038 25 12.5C25 5.59622 19.4035 0 12.5 0ZM14.8916 17.644V14.4519H4.96412V10.5481H14.8921V7.35596L20.0356 12.5L14.8916 17.644Z" fill="#66DE80"/>
</svg>
